<svg width="22" height="22" viewBox="0 0 22 22" fill="none" xmlns="http://www.w3.org/2000/svg">
<path d="M9.53601 6.15579L10.1584 5.37308C10.1307 5.35107 10.1019 5.33054 10.072 5.31157L9.53601 6.15579ZM14.6492 10.2217L14.0268 11.0044C14.0545 11.0264 14.0833 11.0469 14.1132 11.0659L14.6492 10.2217ZM14.6371 11.9177L14.1132 11.0659C14.0835 11.0841 14.0548 11.1039 14.0273 11.1251L14.6371 11.9177ZM9.52391 15.8518L10.0478 16.7035C10.0775 16.6853 10.1061 16.6655 10.1337 16.6443L9.52391 15.8518ZM20 11C20 15.9706 15.9706 20 11 20V22C17.0751 22 22 17.0751 22 11H20ZM11 20C6.02944 20 2 15.9706 2 11H0C0 17.0751 4.92487 22 11 22V20ZM2 11C2 6.02944 6.02944 2 11 2V0C4.92487 0 0 4.92487 0 11H2ZM11 2C15.9706 2 20 6.02944 20 11H22C22 4.92487 17.0751 0 11 0V2ZM8.91361 6.93849L14.0268 11.0044L15.2716 9.43899L10.1584 5.37308L8.91361 6.93849ZM14.0273 11.1251L8.91411 15.0592L10.1337 16.6443L15.2469 12.7102L14.0273 11.1251ZM9 15V7H7V15H9ZM9 15H9H7C7 16.5644 8.71527 17.5232 10.0478 16.7035L9 15ZM14.1132 11.0659L15.161 12.7695C16.4199 11.9951 16.433 10.1697 15.1852 9.37748L14.1132 11.0659ZM10.072 5.31157C8.74048 4.46615 7 5.42274 7 7H9V7L10.072 5.31157Z" fill="#FF7A00"/>
</svg>
