<svg width="212" height="32" viewBox="0 0 212 32" fill="none" xmlns="http://www.w3.org/2000/svg">
<path d="M5.38871 0H6.46157C7.8189 0 8.85925 0.929074 8.85112 2.30283V3.58924C8.85112 4.95506 7.8189 5.89208 6.46157 5.89208H5.38871C4.07202 5.89208 2.99916 4.95506 2.99916 3.58924V2.30283C2.99916 0.937015 4.07202 0 5.38871 0Z" fill="#FF7A00"/>
<path d="M17.946 11.8397C18.9864 9.93395 21.0996 8.21873 24.4482 8.21873C29.5605 8.21873 31.5925 11.3712 31.5843 15.8975V28.8331H26.4395V17.1839C26.4395 14.1029 25.326 12.3877 22.5707 12.3877C19.8235 12.3877 17.9867 14.3332 17.9867 17.6842V28.8251H12.8012V8.719H17.7835L17.946 11.8397Z" fill="#FF7A00"/>
<path d="M0 12.8562H3.4299V28.8331H8.61539V8.72694H0V12.8562Z" fill="#FF7A00"/>
<path fill-rule="evenodd" clip-rule="evenodd" d="M47.8236 18.5021C47.8236 12.3877 51.8549 8.21873 58.3164 8.21873C65.2087 8.21873 68.6386 13.015 68.2892 19.9791H53.131C53.4073 23.5604 55.2035 25.3947 58.3164 25.3947C60.9498 25.3947 62.4209 24.1877 63.0224 22.4725H68.1672C67.1675 26.6811 63.6238 29.3333 58.3164 29.3333C51.7736 29.3333 47.8236 25.2041 47.8236 19.0103V18.5021ZM58.2677 12.1494C55.3986 12.1494 53.7243 13.5947 53.2447 16.5169H62.9736C62.6973 13.7852 61.1774 12.1494 58.2677 12.1494Z" fill="#FF7A00"/>
<path d="M40.4029 22.671V12.8562H45.8241V8.72694H40.4029V1.90579H35.2174V23.1792C35.2174 27.229 37.4932 29.3333 42.2804 29.3333C43.4752 29.3333 44.9544 29.1348 45.9135 28.8251V24.8865C45.3527 25.085 44.4017 25.3153 43.4427 25.3153C41.1588 25.3232 40.4029 24.5053 40.4029 22.671Z" fill="#FF7A00"/>
<path d="M76.6932 12.6259C77.6929 10.0928 79.8061 8.37755 82.7971 8.37755C83.1628 8.37755 83.6749 8.41725 84 8.49666V12.9356C83.6342 12.8959 83.0409 12.8562 82.5208 12.8562C78.5707 12.8562 76.7745 15.0002 76.7745 18.8594V28.8331H71.589V8.72694H76.5713L76.6932 12.6259Z" fill="#FF7A00"/>
<path d="M88 28.9974V8.57785H90.3389V17.1695H89.8712C89.8712 15.2949 90.1371 13.6767 90.6701 12.315C91.2026 10.9539 92.0015 9.89443 93.0674 9.1365C94.1328 8.3792 95.4842 8 97.1214 8H97.2383C98.8755 8 100.226 8.37264 101.292 9.11729C102.357 9.86241 103.15 10.9154 103.67 12.2766C104.19 13.6381 104.45 15.2689 104.45 17.1695H103.514C103.514 15.2949 103.78 13.6767 104.313 12.315C104.845 10.9539 105.651 9.89443 106.73 9.1365C107.808 8.3792 109.166 8 110.803 8H110.92C112.557 8 113.915 8.37264 114.994 9.11729C116.072 9.86241 116.877 10.9154 117.41 12.2766C117.943 13.6381 118.21 15.2689 118.21 17.1695V28.9974H115.286V16.5145C115.286 14.7169 114.844 13.2914 113.961 12.238C113.077 11.1851 111.804 10.6583 110.141 10.6583C108.426 10.6583 107.067 11.2043 106.067 12.2958C105.067 13.3878 104.567 14.8579 104.567 16.7072V28.9974H101.643V16.5145C101.643 14.7169 101.201 13.2914 100.318 12.238C99.4339 11.1851 98.1605 10.6583 96.4976 10.6583C94.7827 10.6583 93.4244 11.2043 92.4243 12.2958C91.4236 13.3878 90.9235 14.8579 90.9235 16.7072V28.9974H88Z" fill="#808285"/>
<path d="M131.755 26.5053C133.413 26.5053 134.813 26.1395 135.956 25.407C137.098 24.6751 137.971 23.707 138.574 22.5027C139.177 21.299 139.478 19.965 139.478 18.5C139.478 17.0107 139.17 15.6644 138.555 14.4601C137.939 13.2563 137.054 12.3005 135.899 11.593C134.744 10.8856 133.362 10.5318 131.755 10.5318C130.173 10.5318 128.804 10.8856 127.649 11.593C126.494 12.3005 125.608 13.2563 124.993 14.4601C124.377 15.6644 124.07 17.0107 124.07 18.5C124.07 19.965 124.371 21.299 124.974 22.5027C125.577 23.707 126.449 24.6751 127.593 25.407C128.735 26.1395 130.122 26.5053 131.755 26.5053ZM131.755 29C130.047 29 128.547 28.7081 127.254 28.125C125.96 27.5421 124.867 26.7601 123.976 25.7793C123.084 24.799 122.406 23.7006 121.942 22.484C121.477 21.2682 121.245 20.0266 121.245 18.7605V18.2393C121.245 16.9734 121.483 15.7261 121.96 14.4973C122.437 13.2686 123.128 12.1702 124.033 11.2021C124.937 10.234 126.035 9.45849 127.329 8.87482C128.622 8.29206 130.098 8 131.755 8C133.438 8 134.926 8.29206 136.219 8.87482C137.513 9.45849 138.611 10.234 139.516 11.2021C140.42 12.1702 141.104 13.2686 141.569 14.4973C142.033 15.7261 142.266 16.9734 142.266 18.2393V18.7605C142.266 20.0266 142.04 21.2682 141.588 22.484C141.136 23.7006 140.463 24.799 139.572 25.7793C138.68 26.7601 137.581 27.5421 136.276 28.125C134.97 28.7081 133.463 29 131.755 29Z" fill="#808285"/>
<path d="M155.222 29L161.688 8H164.66L158.073 29H155.222ZM153.575 26.5785H157.391V29H153.575V26.5785ZM152.771 29L145.301 8H148.394L155.784 29H152.771Z" fill="#808285"/>
<path d="M167.695 8H170.667V29H167.695V8Z" fill="#808285"/>
<path d="M183.61 29C181.902 29 180.42 28.7079 179.165 28.125C177.909 27.5421 176.879 26.7601 176.076 25.7794C175.272 24.799 174.676 23.7007 174.286 22.484C173.897 21.2681 173.703 20.0144 173.703 18.7235V18.2021C173.703 16.9361 173.897 15.6953 174.286 14.4787C174.676 13.2628 175.272 12.1703 176.076 11.2022C176.879 10.234 177.89 9.45848 179.109 8.87497C180.326 8.29206 181.751 8 183.384 8C185.469 8 187.208 8.4596 188.602 9.37773C189.996 10.2963 191.044 11.4692 191.747 12.8963C192.45 14.324 192.802 15.8565 192.802 17.4947V18.9468H174.983V16.7873H190.843L190.127 17.8671C190.127 16.4027 189.87 15.1181 189.355 14.0134C188.84 12.9092 188.087 12.0399 187.095 11.4069C186.102 10.774 184.866 10.4574 183.384 10.4574C181.827 10.4574 180.534 10.8176 179.504 11.5373C178.474 12.2576 177.702 13.2128 177.187 14.4043C176.672 15.5956 176.415 16.9489 176.415 18.4628C176.415 19.9522 176.672 21.3112 177.187 22.5398C177.702 23.7688 178.493 24.7432 179.561 25.4627C180.628 26.1831 181.977 26.5426 183.61 26.5426C185.343 26.5426 186.749 26.1517 187.83 25.3697C188.909 24.5879 189.575 23.6634 189.826 22.5957H192.463C192.212 23.9118 191.684 25.0475 190.881 26.0027C190.077 26.9586 189.06 27.6968 187.83 28.2182C186.599 28.7393 185.192 29 183.61 29Z" fill="#808285"/>
<path d="M203.919 29C201.339 29 199.353 28.4433 197.962 27.3312C196.571 26.2191 195.862 24.7251 195.837 22.85H198.493C198.544 23.8004 198.98 24.6629 199.802 25.4374C200.624 26.2127 201.996 26.6 203.919 26.6C205.714 26.6 207.061 26.2314 207.959 25.4938C208.857 24.7567 209.306 23.8624 209.306 22.8125C209.306 21.8374 208.933 21.0816 208.187 20.5437C207.441 20.0065 206.359 19.6624 204.943 19.5126L202.667 19.2874C200.846 19.0877 199.372 18.5316 198.247 17.6188C197.121 16.7064 196.558 15.4502 196.558 13.8499C196.558 12.6752 196.862 11.6503 197.469 10.775C198.076 9.90016 198.93 9.21869 200.03 8.73118C201.13 8.24368 202.426 8 203.919 8C206.068 8 207.82 8.50043 209.173 9.49991C210.526 10.5002 211.216 11.9251 211.241 13.775H208.585C208.56 12.8252 208.155 12.0253 207.371 11.375C206.587 10.7251 205.436 10.4 203.919 10.4C202.35 10.4 201.18 10.7375 200.409 11.4124C199.637 12.0875 199.252 12.9125 199.252 13.8875C199.252 14.7124 199.542 15.3939 200.125 15.9311C200.706 16.4691 201.617 16.8002 202.856 16.9248L205.133 17.15C207.156 17.375 208.807 17.9505 210.084 18.875C211.361 19.8002 212 21.125 212 22.85C212 24.0254 211.664 25.0813 210.995 26.0189C210.324 26.9563 209.382 27.6875 208.168 28.2124C206.954 28.7375 205.537 29 203.919 29Z" fill="#808285"/>
</svg>
